<svg height="486pt" viewBox="-3 0 486 486.216" width="486pt" xmlns="http://www.w3.org/2000/svg"><path style="fill:white;" d="m8.109375 486.214844h464c4.417969 0 8-3.582032 8-8v-176c0-3.53125-2.320313-6.648438-5.707031-7.664063l-34.292969-10.285156v-70.050781c0-4.417969-3.582031-8-8-8h-40v-94.671875c7.949219-5.996094 12.632813-15.367188 12.664063-25.328125 0-.335938 0-.671875 0-1.007813 13.496093-3.488281 23.199218-15.296875 24-29.214843 10.875-3.0625 19.792968-10.859376 24.285156-21.230469 4.488281-10.367188 4.066406-22.207031-1.144532-32.234375l-14.207031 7.375c3.375 6.5 3.222657 14.265625-.398437 20.628906-3.621094 6.367188-10.21875 10.460938-17.527344 10.882812-2.316406.148438-4.453125 1.289063-5.859375 3.128907-1.40625 1.839843-1.945313 4.203125-1.476563 6.472656.21875 1.054687.328126 2.125.328126 3.199219 0 8.746094-7.023438 15.875-15.769532 16-.199218 0-1.046875-.125-1.246094-.136719-2.691406-.160156-5.285156 1.042969-6.894531 3.203125-1.613281 2.160156-2.027343 4.984375-1.105469 7.519531.660157 1.730469 1.007813 3.5625 1.03125 5.414063 0 8.835937-7.164062 16-16 16-2.820312-.015625-5.582031-.789063-8-2.238282-2.476562-1.429687-5.527343-1.429687-8 0-2.417968 1.449219-5.183593 2.222657-8 2.238282-7.136718.023437-13.417968-4.699219-15.382812-11.5625-1.964844-6.859375.867188-14.191406 6.933594-17.949219 2.421875-1.519531 3.847656-4.214844 3.742187-7.070313-.105469-2.855468-1.726562-5.441406-4.253906-6.777343-8.351563-4.328125-13.953125-12.582031-14.886719-21.945313-.933594-9.359375 2.921875-18.558594 10.253906-24.453125l-10.078124-12.457031c-10.027344 8.0625-16 20.125-16.332032 32.988281-.332031 12.859375 5.007813 25.21875 14.601563 33.789063-6.007813 7.816406-8.070313 17.96875-5.582031 27.511718 2.488281 9.542969 9.242187 17.398438 18.304687 21.285157v90.640625h-40c-4.417969 0-8 3.582031-8 8v24.449218l-53.707031-16.113281c-2.421875-.722656-5.042969-.261719-7.070313 1.246094-2.027343 1.511719-3.222656 3.890625-3.222656 6.417969v41.96875l-80 22.832031v-181.246094c9.867187-5.671875 15.960937-16.171875 16-27.554687 0-.335938 0-.671875 0-1.007813 13.5-3.484375 23.199219-15.292969 24-29.214843 10.878906-3.0625 19.796875-10.859376 24.289063-21.230469 4.488281-10.371094 4.070312-22.214844-1.136719-32.242188l-14.203125 7.390625c1.597656 3.082032 2.421875 6.5 2.402344 9.96875-.039063 11.421875-8.945313 20.847656-20.34375 21.535156-2.3125.148438-4.453126 1.289063-5.859376 3.128907-1.40625 1.839843-1.945312 4.203125-1.476562 6.472656.210938 1.054687.320312 2.125.328125 3.199219 0 8.746094-7.019531 15.871094-15.761719 16-.207031 0-1.054687-.125-1.253906-.136719-2.691406-.160156-5.277344 1.042969-6.890625 3.199219-1.609375 2.160156-2.027344 4.984375-1.109375 7.515625.652344 1.734375.996094 3.570312 1.015625 5.421875 0 8.835937-7.164063 16-16 16-2.820313-.015625-5.582031-.789063-8-2.238282-2.488281-1.449218-5.5625-1.449218-8.050781 0-2.402344 1.441407-5.148438 2.214844-7.949219 2.238282-7.140625.027344-13.425781-4.695313-15.390625-11.558594-1.964844-6.859375.867188-14.191406 6.933594-17.953125 2.421875-1.519531 3.847656-4.214844 3.742187-7.070313-.105469-2.855468-1.726562-5.441406-4.253906-6.777343-8.347656-4.335938-13.941406-12.589844-14.875-21.945313-.933594-9.359375 2.917969-18.554687 10.242187-24.453125l-10.0625-12.457031c-10.023437 8.066406-15.992187 20.128906-16.324218 32.988281-.332032 12.863281 5.007812 25.21875 14.601562 33.789063-5.609375 7.273437-7.796875 16.621094-6 25.628906 1.800782 9.011719 7.410156 16.800781 15.386719 21.363281v197.246094l-82.203125 23.511719c-3.429688.980468-5.796875 4.117187-5.796875 7.6875v136c0 4.417968 3.582031 8 8 8zm272-16v-40h40v40zm104 0v-40h40v40zm-8-352v24h-24v-24zm-24 40h24v48h-24zm-48 64h120v57.25l-120-36zm-64 18.753906 224 67.199219v162.046875h-24v-48c0-4.417969-3.582031-8-8-8h-56c-4.417969 0-8 3.582031-8 8v48h-32v-48c0-4.417969-3.582031-8-8-8h-56c-4.417969 0-8 3.582031-8 8v48h-24zm-112-122.753906v24h-24v-24zm-24 40h24v141.394531l-24 6.855469zm-88 190.03125 208-59.421875v181.390625h-32v-16h-16v16h-48v-16h-16v16h-48v-16h-16v16h-32zm0 0"/><path style="fill:white;" d="m40.109375 358.214844h168v16h-168zm0 0"/><path style="fill:white;" d="m40.109375 390.214844h168v16h-168zm0 0"/><path style="fill:white;" d="m264.109375 286.214844h16v16h-16zm0 0"/><path style="fill:white;" d="m296.109375 286.214844h16v16h-16zm0 0"/><path style="fill:white;" d="m328.109375 286.214844h16v16h-16zm0 0"/><path style="fill:white;" d="m264.109375 318.214844h16v16h-16zm0 0"/><path style="fill:white;" d="m296.109375 318.214844h16v16h-16zm0 0"/><path style="fill:white;" d="m328.109375 318.214844h16v16h-16zm0 0"/><path style="fill:white;" d="m360.109375 318.214844h16v16h-16zm0 0"/><path style="fill:white;" d="m392.109375 318.214844h16v16h-16zm0 0"/><path style="fill:white;" d="m424.109375 318.214844h16v16h-16zm0 0"/><path style="fill:white;" d="m264.109375 350.214844h48v16h-48zm0 0"/><path style="fill:white;" d="m328.109375 350.214844h48v16h-48zm0 0"/><path style="fill:white;" d="m392.109375 350.214844h48v16h-48zm0 0"/><path style="fill:white;" d="m264.109375 382.214844h48v16h-48zm0 0"/><path style="fill:white;" d="m328.109375 382.214844h48v16h-48zm0 0"/><path style="fill:white;" d="m392.109375 382.214844h48v16h-48zm0 0"/></svg>